<svg xmlns="http://www.w3.org/2000/svg" viewBox="0 0 1600 1000" width="1600" height="1000" role="img">
  <rect x="0.0" y="0.0" width="1600.0" height="1000.0" fill="#F3F8F7"/>
  <rect x="0.0" y="0.0" width="1600.0" height="44.0" fill="#115E59"/>
  <circle cx="24.0" cy="22.0" r="4.5" fill="#FFFFFF" opacity="0.28"/>
  <circle cx="44.0" cy="22.0" r="4.5" fill="#FFFFFF" opacity="0.38"/>
  <circle cx="64.0" cy="22.0" r="4.5" fill="#FFFFFF" opacity="0.48"/>
  <text x="800.0" y="26.0" font-family="Helvetica Neue, Helvetica, Arial, sans-serif" font-size="12" font-weight="500" fill="#FFFFFF" text-anchor="middle" letter-spacing="0.3" opacity="0.62">globalhealthrescue.com — Hospital Management System</text>
  <rect x="0.0" y="44.0" width="92.0" height="956.0" fill="#115E59"/>
  <rect x="29.0" y="70.0" width="34.0" height="34.0" fill="#E11D48" rx="8"/>
  <path d="M 46.0 78 v 18 M 37.0 87 h 18" fill="none" stroke="#FFFFFF" stroke-width="2.6" stroke-linecap="round" stroke-linejoin="round" opacity="1"/>
  <rect x="38.0" y="152.0" width="7.0" height="7.0" fill="#FFFFFF" rx="1.5" opacity="0.5"/>
  <rect x="47.0" y="152.0" width="7.0" height="7.0" fill="#FFFFFF" rx="1.5" opacity="0.5"/>
  <rect x="38.0" y="161.0" width="7.0" height="7.0" fill="#FFFFFF" rx="1.5" opacity="0.5"/>
  <rect x="47.0" y="161.0" width="7.0" height="7.0" fill="#FFFFFF" rx="1.5" opacity="0.5"/>
  <text x="46.0" y="183.0" font-family="Helvetica Neue, Helvetica, Arial, sans-serif" font-size="8.5" font-weight="500" fill="#FFFFFF" text-anchor="middle" letter-spacing="0.4" opacity="0.45">WARDS</text>
  <rect x="10.0" y="216.0" width="72.0" height="58.0" fill="#E11D48" rx="8" opacity="0.2"/>
  <circle cx="46.0" cy="234.0" r="3.6" fill="none" stroke="#E11D48" stroke-width="1.8" opacity="1"/>
  <path d="M 39.0 246 a 7 7 0 0 1 14 0" fill="none" stroke="#E11D48" stroke-width="1.8" stroke-linecap="round" stroke-linejoin="round" opacity="1"/>
  <text x="46.0" y="261.0" font-family="Helvetica Neue, Helvetica, Arial, sans-serif" font-size="8.5" font-weight="700" fill="#FFFFFF" text-anchor="middle" letter-spacing="0.4" opacity="0.95">PATIENTS</text>
  <rect x="38.0" y="310.0" width="16.0" height="14.0" fill="none" rx="2" stroke="#FFFFFF" stroke-width="1.8" opacity="0.5"/>
  <line x1="38.0" y1="315.0" x2="54.0" y2="315.0" stroke="#FFFFFF" stroke-width="1.8" stroke-linecap="butt" opacity="0.5"/>
  <line x1="42.0" y1="307.0" x2="42.0" y2="311.0" stroke="#FFFFFF" stroke-width="1.8" stroke-linecap="round" opacity="0.5"/>
  <line x1="50.0" y1="307.0" x2="50.0" y2="311.0" stroke="#FFFFFF" stroke-width="1.8" stroke-linecap="round" opacity="0.5"/>
  <text x="46.0" y="339.0" font-family="Helvetica Neue, Helvetica, Arial, sans-serif" font-size="8.5" font-weight="500" fill="#FFFFFF" text-anchor="middle" letter-spacing="0.4" opacity="0.45">CLINIC</text>
  <path d="M 43.0 385 v 6 l -5 9 a 2 2 0 0 0 2 3 h 12 a 2 2 0 0 0 2 -3 l -5 -9 v -6" fill="none" stroke="#FFFFFF" stroke-width="1.8" stroke-linecap="round" stroke-linejoin="round" opacity="0.5"/>
  <line x1="42.0" y1="385.0" x2="50.0" y2="385.0" stroke="#FFFFFF" stroke-width="1.8" stroke-linecap="round" opacity="0.5"/>
  <text x="46.0" y="417.0" font-family="Helvetica Neue, Helvetica, Arial, sans-serif" font-size="8.5" font-weight="500" fill="#FFFFFF" text-anchor="middle" letter-spacing="0.4" opacity="0.45">LAB</text>
  <rect x="37.0" y="468.0" width="18.0" height="9.0" fill="none" rx="4.5" stroke="#FFFFFF" stroke-width="1.8" opacity="0.5"/>
  <line x1="46.0" y1="468.0" x2="46.0" y2="477.0" stroke="#FFFFFF" stroke-width="1.8" stroke-linecap="butt" opacity="0.5"/>
  <text x="46.0" y="495.0" font-family="Helvetica Neue, Helvetica, Arial, sans-serif" font-size="8.5" font-weight="500" fill="#FFFFFF" text-anchor="middle" letter-spacing="0.4" opacity="0.45">PHARMACY</text>
  <rect x="37.0" y="544.0" width="18.0" height="13.0" fill="none" rx="2" stroke="#FFFFFF" stroke-width="1.8" opacity="0.5"/>
  <line x1="37.0" y1="548.0" x2="55.0" y2="548.0" stroke="#FFFFFF" stroke-width="1.8" stroke-linecap="butt" opacity="0.5"/>
  <text x="46.0" y="573.0" font-family="Helvetica Neue, Helvetica, Arial, sans-serif" font-size="8.5" font-weight="500" fill="#FFFFFF" text-anchor="middle" letter-spacing="0.4" opacity="0.45">CLAIMS</text>
  <circle cx="46.0" cy="952.0" r="15.0" fill="#E11D48"/>
  <text x="46.0" y="956.5" font-family="Helvetica Neue, Helvetica, Arial, sans-serif" font-size="10.5" font-weight="700" fill="#FFFFFF" text-anchor="middle">AN</text>
  <text x="136.0" y="96.0" font-family="Helvetica Neue, Helvetica, Arial, sans-serif" font-size="30" font-weight="700" fill="#10231F" text-anchor="start">Sarah Nakato · PID 0084-2261</text>
  <text x="136.0" y="123.0" font-family="Helvetica Neue, Helvetica, Arial, sans-serif" font-size="13.5" font-weight="400" fill="#456460" text-anchor="start">Ward B, bed 12 · admitted 14 Feb 2026 · under Dr A. Nsubuga</text>
  <rect x="1463.3" y="78.0" width="92.7" height="38.0" fill="#E11D48" rx="5"/>
  <text x="1509.6" y="101.6" font-family="Helvetica Neue, Helvetica, Arial, sans-serif" font-size="13" font-weight="600" fill="#FFFFFF" text-anchor="middle">New order</text>
  <rect x="1352.7" y="78.0" width="98.6" height="38.0" fill="#FFFFFF" rx="5" stroke="#DCE9E7" stroke-width="1.4"/>
  <text x="1402.0" y="101.6" font-family="Helvetica Neue, Helvetica, Arial, sans-serif" font-size="13" font-weight="600" fill="#456460" text-anchor="middle">Print chart</text>
  <rect x="136.0" y="156.0" width="458.7" height="108.0" fill="#FFFFFF" rx="8" stroke="#DCE9E7" stroke-width="1.4"/>
  <text x="156.0" y="185.0" font-family="Helvetica Neue, Helvetica, Arial, sans-serif" font-size="10.5" font-weight="700" fill="#93AEAB" text-anchor="start" letter-spacing="1.1">PATIENTS SEEN TODAY</text>
  <text x="156.0" y="226.0" font-family="Helvetica Neue, Helvetica, Arial, sans-serif" font-size="30" font-weight="700" fill="#10231F" text-anchor="start">312</text>
  <text x="156.0" y="247.0" font-family="Helvetica Neue, Helvetica, Arial, sans-serif" font-size="11" font-weight="400" fill="#93AEAB" text-anchor="start">48 admitted overnight</text>
  <rect x="616.7" y="156.0" width="458.7" height="108.0" fill="#FFFFFF" rx="8" stroke="#DCE9E7" stroke-width="1.4"/>
  <text x="636.7" y="185.0" font-family="Helvetica Neue, Helvetica, Arial, sans-serif" font-size="10.5" font-weight="700" fill="#93AEAB" text-anchor="start" letter-spacing="1.1">BEDS OCCUPIED</text>
  <text x="636.7" y="226.0" font-family="Helvetica Neue, Helvetica, Arial, sans-serif" font-size="30" font-weight="700" fill="#10231F" text-anchor="start">87%</text>
  <text x="636.7" y="247.0" font-family="Helvetica Neue, Helvetica, Arial, sans-serif" font-size="11" font-weight="400" fill="#93AEAB" text-anchor="start">212 of 244, across 18 wards</text>
  <rect x="1097.3" y="156.0" width="458.7" height="108.0" fill="#FFFFFF" rx="8" stroke="#DCE9E7" stroke-width="1.4"/>
  <text x="1117.3" y="185.0" font-family="Helvetica Neue, Helvetica, Arial, sans-serif" font-size="10.5" font-weight="700" fill="#93AEAB" text-anchor="start" letter-spacing="1.1">CLAIMS CLEARED</text>
  <text x="1117.3" y="226.0" font-family="Helvetica Neue, Helvetica, Arial, sans-serif" font-size="30" font-weight="700" fill="#E11D48" text-anchor="start">97.4%</text>
  <text x="1117.3" y="247.0" font-family="Helvetica Neue, Helvetica, Arial, sans-serif" font-size="11" font-weight="400" fill="#93AEAB" text-anchor="start">reconciled with six insurers</text>
  <rect x="136.0" y="290.0" width="556.0" height="172.0" fill="#FFFFFF" rx="8" stroke="#DCE9E7" stroke-width="1.4"/>
  <circle cx="196.0" cy="364.0" r="31.0" fill="#0F766E" opacity="0.1"/>
  <circle cx="196.0" cy="360.0" r="3.6" fill="none" stroke="#0F766E" stroke-width="1.8" opacity="0.5"/>
  <path d="M 189 372 a 7 7 0 0 1 14 0" fill="none" stroke="#0F766E" stroke-width="1.8" stroke-linecap="round" stroke-linejoin="round" opacity="0.5"/>
  <text x="248.0" y="344.0" font-family="Helvetica Neue, Helvetica, Arial, sans-serif" font-size="20" font-weight="700" fill="#10231F" text-anchor="start">Sarah Nakato</text>
  <text x="248.0" y="365.0" font-family="Helvetica Neue, Helvetica, Arial, sans-serif" font-size="12" font-weight="400" fill="#456460" text-anchor="start">Female · 34 years · 62 kg · next of kin on file</text>
  <rect x="248.0" y="378.0" width="70.9" height="22.0" fill="#DCEDEB" rx="4"/>
  <text x="283.4" y="392.6" font-family="Helvetica Neue, Helvetica, Arial, sans-serif" font-size="10" font-weight="700" fill="#0F766E" text-anchor="middle" letter-spacing="0.3">BLOOD O+</text>
  <rect x="326.9" y="378.0" width="133.1" height="22.0" fill="#E4F0E7" rx="4"/>
  <text x="393.4" y="392.6" font-family="Helvetica Neue, Helvetica, Arial, sans-serif" font-size="10" font-weight="700" fill="#15803D" text-anchor="middle" letter-spacing="0.3">NO KNOWN ALLERGIES</text>
  <rect x="468.0" y="378.0" width="97.2" height="22.0" fill="#FBE4E9" rx="4"/>
  <text x="516.6" y="392.6" font-family="Helvetica Neue, Helvetica, Arial, sans-serif" font-size="10" font-weight="700" fill="#E11D48" text-anchor="middle" letter-spacing="0.3">NHIF · ACTIVE</text>
  <rect x="136.0" y="478.0" width="556.0" height="250.0" fill="#FFFFFF" rx="8" stroke="#DCE9E7" stroke-width="1.4"/>
  <text x="156.0" y="510.0" font-family="Helvetica Neue, Helvetica, Arial, sans-serif" font-size="11" font-weight="700" fill="#93AEAB" text-anchor="start" letter-spacing="1.2">OBSERVATIONS · LAST 12 HOURS</text>
  <text x="672.0" y="510.0" font-family="Helvetica Neue, Helvetica, Arial, sans-serif" font-size="11" font-weight="700" fill="#E11D48" text-anchor="end" letter-spacing="1">RECORDED 4-HOURLY</text>
  <rect x="156.0" y="526.0" width="516.0" height="152.0" fill="#F3F8F7" rx="6"/>
  <line x1="156.0" y1="564.0" x2="672.0" y2="564.0" stroke="#DCE9E7" stroke-width="1" stroke-linecap="butt"/>
  <line x1="156.0" y1="602.0" x2="672.0" y2="602.0" stroke="#DCE9E7" stroke-width="1" stroke-linecap="butt"/>
  <line x1="156.0" y1="640.0" x2="672.0" y2="640.0" stroke="#DCE9E7" stroke-width="1" stroke-linecap="butt"/>
  <path d="M 174.0 662.0 L 234.0 627.7 L 294.0 644.9 L 354.0 582.0 L 414.0 604.9 L 474.0 559.1 L 534.0 593.4 L 594.0 542.0 L 654.0 570.6 L 654.0 662.0 L 174.0 662.0 Z" fill="#E11D48" opacity="0.12"/>
  <path d="M 174.0 662.0 L 234.0 627.7 L 294.0 644.9 L 354.0 582.0 L 414.0 604.9 L 474.0 559.1 L 534.0 593.4 L 594.0 542.0 L 654.0 570.6" fill="none" stroke="#E11D48" stroke-width="3" stroke-linecap="round" stroke-linejoin="round"/>
  <circle cx="654.0" cy="570.6" r="5.0" fill="#E11D48"/>
  <circle cx="654.0" cy="570.6" r="10.0" fill="#E11D48" opacity="0.22"/>
  <path d="M 174.0 662.0 L 234.0 602.0 L 294.0 662.0 L 354.0 542.0 L 414.0 602.0 L 474.0 542.0 L 534.0 602.0 L 594.0 602.0 L 654.0 662.0" fill="none" stroke="#0F766E" stroke-width="3" stroke-linecap="round" stroke-linejoin="round"/>
  <circle cx="654.0" cy="662.0" r="5.0" fill="#0F766E"/>
  <circle cx="654.0" cy="662.0" r="10.0" fill="#0F766E" opacity="0.22"/>
  <rect x="156.0" y="696.0" width="11.0" height="11.0" fill="#E11D48" rx="2"/>
  <text x="174.0" y="706.0" font-family="Helvetica Neue, Helvetica, Arial, sans-serif" font-size="11.5" font-weight="500" fill="#456460" text-anchor="start">Pulse</text>
  <text x="264.0" y="706.0" font-family="Helvetica Neue, Helvetica, Arial, sans-serif" font-size="11.5" font-weight="700" fill="#10231F" text-anchor="start">94 bpm</text>
  <rect x="366.0" y="696.0" width="11.0" height="11.0" fill="#0F766E" rx="2"/>
  <text x="384.0" y="706.0" font-family="Helvetica Neue, Helvetica, Arial, sans-serif" font-size="11.5" font-weight="500" fill="#456460" text-anchor="start">Temperature</text>
  <text x="474.0" y="706.0" font-family="Helvetica Neue, Helvetica, Arial, sans-serif" font-size="11.5" font-weight="700" fill="#10231F" text-anchor="start">37.4 °C</text>
  <text x="136.0" y="768.0" font-family="Helvetica Neue, Helvetica, Arial, sans-serif" font-size="11" font-weight="700" fill="#93AEAB" text-anchor="start" letter-spacing="1.2">ACTIVE ORDERS</text>
  <text x="692.0" y="768.0" font-family="Helvetica Neue, Helvetica, Arial, sans-serif" font-size="11" font-weight="700" fill="#E11D48" text-anchor="end" letter-spacing="1">3 OPEN</text>
  <rect x="136.0" y="786.0" width="556.0" height="52.0" fill="#FFFFFF" rx="8" stroke="#DCE9E7" stroke-width="1.4"/>
  <rect x="136.0" y="786.0" width="4.0" height="52.0" fill="#15803D" rx="2"/>
  <text x="156.0" y="808.0" font-family="Helvetica Neue, Helvetica, Arial, sans-serif" font-size="13" font-weight="600" fill="#10231F" text-anchor="start">Full blood count</text>
  <text x="156.0" y="826.0" font-family="Helvetica Neue, Helvetica, Arial, sans-serif" font-size="11" font-weight="400" fill="#93AEAB" text-anchor="start">Laboratory · requested 09:20</text>
  <rect x="594.7" y="801.0" width="79.3" height="22.0" fill="#E4F0E7" rx="4"/>
  <text x="634.3" y="815.8" font-family="Helvetica Neue, Helvetica, Arial, sans-serif" font-size="10.5" font-weight="700" fill="#15803D" text-anchor="middle" letter-spacing="0.3">RESULT IN</text>
  <rect x="136.0" y="848.0" width="556.0" height="52.0" fill="#FFFFFF" rx="8" stroke="#DCE9E7" stroke-width="1.4"/>
  <rect x="136.0" y="848.0" width="4.0" height="52.0" fill="#0F766E" rx="2"/>
  <text x="156.0" y="870.0" font-family="Helvetica Neue, Helvetica, Arial, sans-serif" font-size="13" font-weight="600" fill="#10231F" text-anchor="start">Amoxicillin 500 mg</text>
  <text x="156.0" y="888.0" font-family="Helvetica Neue, Helvetica, Arial, sans-serif" font-size="11" font-weight="400" fill="#93AEAB" text-anchor="start">Pharmacy · t.d.s. for 5 days</text>
  <rect x="591.6" y="863.0" width="82.4" height="22.0" fill="#DCEDEB" rx="4"/>
  <text x="632.8" y="877.8" font-family="Helvetica Neue, Helvetica, Arial, sans-serif" font-size="10.5" font-weight="700" fill="#0F766E" text-anchor="middle" letter-spacing="0.3">DISPENSED</text>
  <rect x="136.0" y="910.0" width="556.0" height="52.0" fill="#FFFFFF" rx="8" stroke="#DCE9E7" stroke-width="1.4"/>
  <rect x="136.0" y="910.0" width="4.0" height="52.0" fill="#B45309" rx="2"/>
  <text x="156.0" y="932.0" font-family="Helvetica Neue, Helvetica, Arial, sans-serif" font-size="13" font-weight="600" fill="#10231F" text-anchor="start">Chest X-ray</text>
  <text x="156.0" y="950.0" font-family="Helvetica Neue, Helvetica, Arial, sans-serif" font-size="11" font-weight="400" fill="#93AEAB" text-anchor="start">Radiology · requested 11:05</text>
  <rect x="607.5" y="925.0" width="66.5" height="22.0" fill="#FBF0DC" rx="4"/>
  <text x="640.7" y="939.8" font-family="Helvetica Neue, Helvetica, Arial, sans-serif" font-size="10.5" font-weight="700" fill="#B45309" text-anchor="middle" letter-spacing="0.3">WAITING</text>
  <rect x="718.0" y="290.0" width="838.0" height="620.0" fill="#FFFFFF" rx="8" stroke="#DCE9E7" stroke-width="1.4"/>
  <text x="738.0" y="324.0" font-family="Helvetica Neue, Helvetica, Arial, sans-serif" font-size="11" font-weight="700" fill="#93AEAB" text-anchor="start" letter-spacing="1.2">TODAY'S CLINIC</text>
  <text x="1536.0" y="324.0" font-family="Helvetica Neue, Helvetica, Arial, sans-serif" font-size="11" font-weight="700" fill="#E11D48" text-anchor="end" letter-spacing="1">18 SLOTS · 4 FREE</text>
  <text x="738.0" y="372.0" font-family="SFMono-Regular, Menlo, Consolas, monospace" font-size="11.5" font-weight="600" fill="#93AEAB" text-anchor="start">08:00</text>
  <rect x="794.0" y="344.0" width="742.0" height="48.0" fill="#FFFFFF" rx="8" stroke="#DCE9E7" stroke-width="1.4"/>
  <text x="810.0" y="365.0" font-family="Helvetica Neue, Helvetica, Arial, sans-serif" font-size="12.5" font-weight="700" fill="#10231F" text-anchor="start">Ssentongo, J.</text>
  <text x="810.0" y="382.0" font-family="Helvetica Neue, Helvetica, Arial, sans-serif" font-size="10.5" font-weight="400" fill="#10231F" text-anchor="start" opacity="0.68">Review · hypertension</text>
  <text x="738.0" y="434.0" font-family="SFMono-Regular, Menlo, Consolas, monospace" font-size="11.5" font-weight="600" fill="#93AEAB" text-anchor="start">08:30</text>
  <rect x="794.0" y="406.0" width="742.0" height="48.0" fill="#FFFFFF" rx="8" stroke="#DCE9E7" stroke-width="1.4"/>
  <text x="810.0" y="427.0" font-family="Helvetica Neue, Helvetica, Arial, sans-serif" font-size="12.5" font-weight="700" fill="#10231F" text-anchor="start">Achieng, P.</text>
  <text x="810.0" y="444.0" font-family="Helvetica Neue, Helvetica, Arial, sans-serif" font-size="10.5" font-weight="400" fill="#10231F" text-anchor="start" opacity="0.68">New patient</text>
  <text x="738.0" y="496.0" font-family="SFMono-Regular, Menlo, Consolas, monospace" font-size="11.5" font-weight="600" fill="#93AEAB" text-anchor="start">09:00</text>
  <rect x="794.0" y="468.0" width="742.0" height="48.0" fill="#E11D48" rx="8"/>
  <text x="810.0" y="489.0" font-family="Helvetica Neue, Helvetica, Arial, sans-serif" font-size="12.5" font-weight="700" fill="#FFFFFF" text-anchor="start">Nakato, S.</text>
  <text x="810.0" y="506.0" font-family="Helvetica Neue, Helvetica, Arial, sans-serif" font-size="10.5" font-weight="400" fill="#FFFFFF" text-anchor="start" opacity="0.68">Ward round</text>
  <text x="738.0" y="558.0" font-family="SFMono-Regular, Menlo, Consolas, monospace" font-size="11.5" font-weight="600" fill="#93AEAB" text-anchor="start">09:30</text>
  <rect x="794.0" y="530.0" width="742.0" height="48.0" fill="#F3F8F7" rx="8"/>
  <text x="1165.0" y="559.0" font-family="Helvetica Neue, Helvetica, Arial, sans-serif" font-size="11.5" font-weight="500" fill="#93AEAB" text-anchor="middle">available</text>
  <text x="738.0" y="620.0" font-family="SFMono-Regular, Menlo, Consolas, monospace" font-size="11.5" font-weight="600" fill="#93AEAB" text-anchor="start">10:00</text>
  <rect x="794.0" y="592.0" width="742.0" height="48.0" fill="#FFFFFF" rx="8" stroke="#DCE9E7" stroke-width="1.4"/>
  <text x="810.0" y="613.0" font-family="Helvetica Neue, Helvetica, Arial, sans-serif" font-size="12.5" font-weight="700" fill="#10231F" text-anchor="start">Okot, D.</text>
  <text x="810.0" y="630.0" font-family="Helvetica Neue, Helvetica, Arial, sans-serif" font-size="10.5" font-weight="400" fill="#10231F" text-anchor="start" opacity="0.68">Post-operative check</text>
  <text x="738.0" y="682.0" font-family="SFMono-Regular, Menlo, Consolas, monospace" font-size="11.5" font-weight="600" fill="#93AEAB" text-anchor="start">10:30</text>
  <rect x="794.0" y="654.0" width="742.0" height="48.0" fill="#0F766E" rx="8"/>
  <text x="810.0" y="675.0" font-family="Helvetica Neue, Helvetica, Arial, sans-serif" font-size="12.5" font-weight="700" fill="#FFFFFF" text-anchor="start">Birungi, M.</text>
  <text x="810.0" y="692.0" font-family="Helvetica Neue, Helvetica, Arial, sans-serif" font-size="10.5" font-weight="400" fill="#FFFFFF" text-anchor="start" opacity="0.68">Antenatal · 28 weeks</text>
  <text x="738.0" y="744.0" font-family="SFMono-Regular, Menlo, Consolas, monospace" font-size="11.5" font-weight="600" fill="#93AEAB" text-anchor="start">11:00</text>
  <rect x="794.0" y="716.0" width="742.0" height="48.0" fill="#F3F8F7" rx="8"/>
  <text x="1165.0" y="745.0" font-family="Helvetica Neue, Helvetica, Arial, sans-serif" font-size="11.5" font-weight="500" fill="#93AEAB" text-anchor="middle">available</text>
  <text x="738.0" y="806.0" font-family="SFMono-Regular, Menlo, Consolas, monospace" font-size="11.5" font-weight="600" fill="#93AEAB" text-anchor="start">11:30</text>
  <rect x="794.0" y="778.0" width="742.0" height="48.0" fill="#FFFFFF" rx="8" stroke="#DCE9E7" stroke-width="1.4"/>
  <text x="810.0" y="799.0" font-family="Helvetica Neue, Helvetica, Arial, sans-serif" font-size="12.5" font-weight="700" fill="#10231F" text-anchor="start">Kayondo, T.</text>
  <text x="810.0" y="816.0" font-family="Helvetica Neue, Helvetica, Arial, sans-serif" font-size="10.5" font-weight="400" fill="#10231F" text-anchor="start" opacity="0.68">Follow-up · diabetes</text>
  <text x="738.0" y="868.0" font-family="SFMono-Regular, Menlo, Consolas, monospace" font-size="11.5" font-weight="600" fill="#93AEAB" text-anchor="start">12:00</text>
  <rect x="794.0" y="840.0" width="742.0" height="48.0" fill="#0F766E" rx="8"/>
  <text x="810.0" y="861.0" font-family="Helvetica Neue, Helvetica, Arial, sans-serif" font-size="12.5" font-weight="700" fill="#FFFFFF" text-anchor="start">Amuge, R.</text>
  <text x="810.0" y="878.0" font-family="Helvetica Neue, Helvetica, Arial, sans-serif" font-size="10.5" font-weight="400" fill="#FFFFFF" text-anchor="start" opacity="0.68">Referral from Mulago</text>
</svg>
