<svg xmlns="http://www.w3.org/2000/svg" viewBox="0 0 1600 1000" width="1600" height="1000" role="img">
  <rect x="0" y="0" width="1600" height="1000" fill="#F5F2EA"/>
  <rect x="0" y="0" width="1600" height="52" fill="#0B1F3A"/>
  <circle cx="28" cy="26.0" r="5" fill="#FFFFFF" opacity="0.22"/>
  <circle cx="50" cy="26.0" r="5" fill="#FFFFFF" opacity="0.3"/>
  <circle cx="72" cy="26.0" r="5" fill="#FFFFFF" opacity="0.38"/>
  <text x="800.0" y="31" font-family="Helvetica Neue, Helvetica, Arial, sans-serif" font-size="13" font-weight="500" fill="#FFFFFF" text-anchor="middle" letter-spacing="0.4" opacity="0.55">ICT for Persons with Disabilities Observatory</text>
  <circle cx="1560" cy="26.0" r="13" fill="#B8933F" opacity="0.9"/>
  <text x="1560" y="30.5" font-family="Helvetica Neue, Helvetica, Arial, sans-serif" font-size="11" font-weight="700" fill="#0B1F3A" text-anchor="middle">UC</text>
  <rect x="0" y="52" width="288" height="948" fill="#152B4C"/>
  <rect x="28" y="84" width="38" height="38" fill="#B8933F" rx="8"/>
  <path d="M 47 92 v 8 M 47 100 l -8 12 M 47 100 l 8 12 M 39 96 h 16" fill="none" stroke="#0B1F3A" stroke-width="2.4" stroke-linecap="round" stroke-linejoin="round"/>
  <text x="78" y="100" font-family="Helvetica Neue, Helvetica, Arial, sans-serif" font-size="15" font-weight="700" fill="#FFFFFF" text-anchor="start">ICT4PWD</text>
  <text x="78" y="118" font-family="Helvetica Neue, Helvetica, Arial, sans-serif" font-size="11" font-weight="400" fill="#FFFFFF" text-anchor="start" letter-spacing="0.6" opacity="0.45">UCC · NUDIPU</text>
  <line x1="28" y1="150" x2="260" y2="150" stroke="#FFFFFF" stroke-width="1" stroke-linecap="butt" opacity="0.12"/>
  <rect x="32" y="181" width="18" height="18" fill="#FFFFFF" rx="4" opacity="0.32"/>
  <text x="64" y="195" font-family="Helvetica Neue, Helvetica, Arial, sans-serif" font-size="13.5" font-weight="400" fill="#FFFFFF" text-anchor="start" opacity="0.5">Observatory</text>
  <rect x="32" y="233" width="18" height="18" fill="#FFFFFF" rx="4" opacity="0.32"/>
  <text x="64" y="247" font-family="Helvetica Neue, Helvetica, Arial, sans-serif" font-size="13.5" font-weight="400" fill="#FFFFFF" text-anchor="start" opacity="0.5">Population</text>
  <rect x="16" y="276" width="256" height="40" fill="#FFFFFF" rx="6" opacity="0.09"/>
  <rect x="0" y="276" width="4" height="40" fill="#B8933F"/>
  <rect x="32" y="285" width="18" height="18" fill="#B8933F" rx="4" opacity="1"/>
  <text x="64" y="299" font-family="Helvetica Neue, Helvetica, Arial, sans-serif" font-size="13.5" font-weight="600" fill="#FFFFFF" text-anchor="start" opacity="0.95">Access to ICT</text>
  <rect x="32" y="337" width="18" height="18" fill="#FFFFFF" rx="4" opacity="0.32"/>
  <text x="64" y="351" font-family="Helvetica Neue, Helvetica, Arial, sans-serif" font-size="13.5" font-weight="400" fill="#FFFFFF" text-anchor="start" opacity="0.5">Policy briefs</text>
  <rect x="32" y="389" width="18" height="18" fill="#FFFFFF" rx="4" opacity="0.32"/>
  <text x="64" y="403" font-family="Helvetica Neue, Helvetica, Arial, sans-serif" font-size="13.5" font-weight="400" fill="#FFFFFF" text-anchor="start" opacity="0.5">Regions</text>
  <rect x="32" y="441" width="18" height="18" fill="#FFFFFF" rx="4" opacity="0.32"/>
  <text x="64" y="455" font-family="Helvetica Neue, Helvetica, Arial, sans-serif" font-size="13.5" font-weight="400" fill="#FFFFFF" text-anchor="start" opacity="0.5">Sources</text>
  <line x1="28" y1="904" x2="260" y2="904" stroke="#FFFFFF" stroke-width="1" stroke-linecap="butt" opacity="0.12"/>
  <circle cx="46" cy="942" r="15" fill="#FFFFFF" opacity="0.16"/>
  <text x="46" y="946.5" font-family="Helvetica Neue, Helvetica, Arial, sans-serif" font-size="10.5" font-weight="700" fill="#FFFFFF" text-anchor="middle" opacity="0.7">MM</text>
  <rect x="72" y="934" width="104" height="9" fill="#FFFFFF" rx="4.5" opacity="0.4"/>
  <rect x="72" y="950" width="68" height="7" fill="#FFFFFF" rx="3.5" opacity="0.2"/>
  <text x="336" y="112" font-family="Helvetica Neue, Helvetica, Arial, sans-serif" font-size="33" font-weight="700" fill="#0B1F3A" text-anchor="start">Access to ICT, by region</text>
  <text x="336" y="141" font-family="Helvetica Neue, Helvetica, Arial, sans-serif" font-size="14.5" font-weight="400" fill="#8A8375" text-anchor="start">National disability observatory · 2026 round · 1.4M records</text>
  <rect x="1411.4" y="88" width="140.6" height="42" fill="#B8933F" rx="4"/>
  <text x="1481.7" y="113.86" font-family="Helvetica Neue, Helvetica, Arial, sans-serif" font-size="13.5" font-weight="600" fill="#0B1F3A" text-anchor="middle">Download data</text>
  <rect x="1273.2" y="88" width="124.19999999999999" height="42" fill="#FFFFFF" rx="4"/>
  <text x="1335.3" y="113.86" font-family="Helvetica Neue, Helvetica, Arial, sans-serif" font-size="13.5" font-weight="600" fill="#0B1F3A" text-anchor="middle">Methodology</text>
  <rect x="1273.2" y="88" width="124.19999999999999" height="42" fill="none" rx="4" stroke="#E4DFD3" stroke-width="1"/>
  <rect x="1273.2" y="88" width="0" height="0" fill="none" rx="4"/>
  <text x="1335.3" y="113.9" font-family="Helvetica Neue, Helvetica, Arial, sans-serif" font-size="13.5" font-weight="600" fill="#0B1F3A" text-anchor="middle">Methodology</text>
  <rect x="336.0" y="178" width="389.3333333333333" height="116" fill="#FFFFFF" rx="6" stroke="#E4DFD3" stroke-width="1"/>
  <text x="358.0" y="208" font-family="Helvetica Neue, Helvetica, Arial, sans-serif" font-size="11" font-weight="700" fill="#8A8375" text-anchor="start" letter-spacing="1.1">PEOPLE ON RECORD</text>
  <text x="358.0" y="252" font-family="Helvetica Neue, Helvetica, Arial, sans-serif" font-size="34" font-weight="700" fill="#0B1F3A" text-anchor="start">1.42M</text>
  <text x="358.0" y="274" font-family="Helvetica Neue, Helvetica, Arial, sans-serif" font-size="11.5" font-weight="400" fill="#B8B2A4" text-anchor="start">self-reported, consented</text>
  <rect x="749.3333333333333" y="178" width="389.3333333333333" height="116" fill="#FFFFFF" rx="6" stroke="#E4DFD3" stroke-width="1"/>
  <text x="771.3333333333333" y="208" font-family="Helvetica Neue, Helvetica, Arial, sans-serif" font-size="11" font-weight="700" fill="#8A8375" text-anchor="start" letter-spacing="1.1">DISTRICTS COVERED</text>
  <text x="771.3333333333333" y="252" font-family="Helvetica Neue, Helvetica, Arial, sans-serif" font-size="34" font-weight="700" fill="#0B1F3A" text-anchor="start">146</text>
  <text x="771.3333333333333" y="274" font-family="Helvetica Neue, Helvetica, Arial, sans-serif" font-size="11.5" font-weight="400" fill="#B8B2A4" text-anchor="start">every district in Uganda</text>
  <rect x="1162.6666666666665" y="178" width="389.3333333333333" height="116" fill="#FFFFFF" rx="6" stroke="#E4DFD3" stroke-width="1"/>
  <text x="1184.6666666666665" y="208" font-family="Helvetica Neue, Helvetica, Arial, sans-serif" font-size="11" font-weight="700" fill="#8A8375" text-anchor="start" letter-spacing="1.1">OWN A SMARTPHONE</text>
  <text x="1184.6666666666665" y="252" font-family="Helvetica Neue, Helvetica, Arial, sans-serif" font-size="34" font-weight="700" fill="#B8933F" text-anchor="start">31.4%</text>
  <text x="1184.6666666666665" y="274" font-family="Helvetica Neue, Helvetica, Arial, sans-serif" font-size="11.5" font-weight="400" fill="#B8B2A4" text-anchor="start">up 9 points since 2023</text>
  <rect x="336" y="324" width="806" height="616" fill="#FFFFFF" rx="6" stroke="#E4DFD3" stroke-width="1"/>
  <text x="360" y="356" font-family="Helvetica Neue, Helvetica, Arial, sans-serif" font-size="12" font-weight="700" fill="#8A8375" text-anchor="start" letter-spacing="1.2">SMARTPHONE OWNERSHIP BY SUB-REGION</text>
  <text x="1118" y="356" font-family="Helvetica Neue, Helvetica, Arial, sans-serif" font-size="12" font-weight="700" fill="#B8933F" text-anchor="end">2023 → 2026</text>
  <line x1="408" y1="822.0" x2="1118" y2="822.0" stroke="#E4DFD3" stroke-width="1" stroke-linecap="butt"/>
  <text x="394" y="826.0" font-family="Helvetica Neue, Helvetica, Arial, sans-serif" font-size="11" font-weight="500" fill="#B8B2A4" text-anchor="end">0%</text>
  <line x1="408" y1="717.0" x2="1118" y2="717.0" stroke="#E4DFD3" stroke-width="1" stroke-linecap="butt"/>
  <text x="394" y="721.0" font-family="Helvetica Neue, Helvetica, Arial, sans-serif" font-size="11" font-weight="500" fill="#B8B2A4" text-anchor="end">15%</text>
  <line x1="408" y1="612.0" x2="1118" y2="612.0" stroke="#E4DFD3" stroke-width="1" stroke-linecap="butt"/>
  <text x="394" y="616.0" font-family="Helvetica Neue, Helvetica, Arial, sans-serif" font-size="11" font-weight="500" fill="#B8B2A4" text-anchor="end">30%</text>
  <line x1="408" y1="507.0" x2="1118" y2="507.0" stroke="#E4DFD3" stroke-width="1" stroke-linecap="butt"/>
  <text x="394" y="511.0" font-family="Helvetica Neue, Helvetica, Arial, sans-serif" font-size="11" font-weight="500" fill="#B8B2A4" text-anchor="end">45%</text>
  <line x1="408" y1="402.0" x2="1118" y2="402.0" stroke="#E4DFD3" stroke-width="1" stroke-linecap="butt"/>
  <text x="394" y="406.0" font-family="Helvetica Neue, Helvetica, Arial, sans-serif" font-size="11" font-weight="500" fill="#B8B2A4" text-anchor="end">60%</text>
  <rect x="422.2" y="640.0" width="24.85" height="182.0" fill="#0B1F3A" rx="3" opacity="0.28"/>
  <rect x="452.375" y="556.0" width="24.85" height="266.0" fill="#0B1F3A" rx="3" opacity="0.85"/>
  <text x="452.375" y="846" font-family="Helvetica Neue, Helvetica, Arial, sans-serif" font-size="11.5" font-weight="600" fill="#8A8375" text-anchor="middle">Central</text>
  <rect x="510.95" y="535.0" width="24.85" height="287.0" fill="#0B1F3A" rx="3" opacity="0.28"/>
  <rect x="541.125" y="423.0" width="24.85" height="399.0" fill="#B8933F" rx="3" opacity="1"/>
  <text x="541.125" y="846" font-family="Helvetica Neue, Helvetica, Arial, sans-serif" font-size="11.5" font-weight="600" fill="#8A8375" text-anchor="middle">Kampala</text>
  <rect x="599.7" y="696.0" width="24.85" height="126.0" fill="#0B1F3A" rx="3" opacity="0.28"/>
  <rect x="629.875" y="633.0" width="24.85" height="189.0" fill="#0B1F3A" rx="3" opacity="0.85"/>
  <text x="629.875" y="846" font-family="Helvetica Neue, Helvetica, Arial, sans-serif" font-size="11.5" font-weight="600" fill="#8A8375" text-anchor="middle">Eastern</text>
  <rect x="688.45" y="738.0" width="24.85" height="84.0" fill="#0B1F3A" rx="3" opacity="0.28"/>
  <rect x="718.625" y="689.0" width="24.85" height="133.0" fill="#0B1F3A" rx="3" opacity="0.85"/>
  <text x="718.625" y="846" font-family="Helvetica Neue, Helvetica, Arial, sans-serif" font-size="11.5" font-weight="600" fill="#8A8375" text-anchor="middle">Northern</text>
  <rect x="777.2" y="675.0" width="24.85" height="147.0" fill="#0B1F3A" rx="3" opacity="0.28"/>
  <rect x="807.375" y="605.0" width="24.85" height="217.00000000000003" fill="#0B1F3A" rx="3" opacity="0.85"/>
  <text x="807.375" y="846" font-family="Helvetica Neue, Helvetica, Arial, sans-serif" font-size="11.5" font-weight="600" fill="#8A8375" text-anchor="middle">Western</text>
  <rect x="865.95" y="780.0" width="24.85" height="42.0" fill="#0B1F3A" rx="3" opacity="0.28"/>
  <rect x="896.125" y="745.0" width="24.85" height="77.0" fill="#0B1F3A" rx="3" opacity="0.85"/>
  <text x="896.125" y="846" font-family="Helvetica Neue, Helvetica, Arial, sans-serif" font-size="11.5" font-weight="600" fill="#8A8375" text-anchor="middle">Karamoja</text>
  <rect x="954.7" y="745.0" width="24.85" height="77.0" fill="#0B1F3A" rx="3" opacity="0.28"/>
  <rect x="984.875" y="696.0" width="24.85" height="126.0" fill="#0B1F3A" rx="3" opacity="0.85"/>
  <text x="984.875" y="846" font-family="Helvetica Neue, Helvetica, Arial, sans-serif" font-size="11.5" font-weight="600" fill="#8A8375" text-anchor="middle">West Nile</text>
  <rect x="1043.45" y="710.0" width="24.85" height="112.0" fill="#0B1F3A" rx="3" opacity="0.28"/>
  <rect x="1073.625" y="654.0" width="24.85" height="168.0" fill="#0B1F3A" rx="3" opacity="0.85"/>
  <text x="1073.625" y="846" font-family="Helvetica Neue, Helvetica, Arial, sans-serif" font-size="11.5" font-weight="600" fill="#8A8375" text-anchor="middle">Elgon</text>
  <rect x="360" y="878" width="11" height="11" fill="#0B1F3A" rx="2" opacity="0.28"/>
  <text x="380" y="888" font-family="Helvetica Neue, Helvetica, Arial, sans-serif" font-size="12" font-weight="500" fill="#8A8375" text-anchor="start">2023 round</text>
  <rect x="484" y="878" width="11" height="11" fill="#0B1F3A" rx="2" opacity="0.85"/>
  <text x="504" y="888" font-family="Helvetica Neue, Helvetica, Arial, sans-serif" font-size="12" font-weight="500" fill="#8A8375" text-anchor="start">2026 round</text>
  <text x="360" y="918" font-family="Helvetica Neue, Helvetica, Arial, sans-serif" font-size="12" font-weight="400" fill="#B8B2A4" text-anchor="start">Weighted to the national population. Collected with NUDIPU district associations.</text>
  <rect x="1170" y="324" width="382" height="292" fill="#FFFFFF" rx="6" stroke="#E4DFD3" stroke-width="1"/>
  <text x="1192" y="356" font-family="Helvetica Neue, Helvetica, Arial, sans-serif" font-size="12" font-weight="700" fill="#8A8375" text-anchor="start" letter-spacing="1.2">ASSISTIVE TECHNOLOGY</text>
  <text x="1192" y="398" font-family="Helvetica Neue, Helvetica, Arial, sans-serif" font-size="12.5" font-weight="600" fill="#0B1F3A" text-anchor="start">Screen reader</text>
  <text x="1530" y="398" font-family="Helvetica Neue, Helvetica, Arial, sans-serif" font-size="12.5" font-weight="700" fill="#B8933F" text-anchor="end">22%</text>
  <rect x="1192" y="408" width="338" height="9" fill="#E4DFD3" rx="5"/>
  <rect x="1192" y="408" width="74.36" height="9" fill="#B8933F" rx="5"/>
  <text x="1192" y="452" font-family="Helvetica Neue, Helvetica, Arial, sans-serif" font-size="12.5" font-weight="600" fill="#0B1F3A" text-anchor="start">Hearing aid</text>
  <text x="1530" y="452" font-family="Helvetica Neue, Helvetica, Arial, sans-serif" font-size="12.5" font-weight="700" fill="#B8933F" text-anchor="end">34%</text>
  <rect x="1192" y="462" width="338" height="9" fill="#E4DFD3" rx="5"/>
  <rect x="1192" y="462" width="114.92" height="9" fill="#B8933F" rx="5"/>
  <text x="1192" y="506" font-family="Helvetica Neue, Helvetica, Arial, sans-serif" font-size="12.5" font-weight="600" fill="#0B1F3A" text-anchor="start">Braille display</text>
  <text x="1530" y="506" font-family="Helvetica Neue, Helvetica, Arial, sans-serif" font-size="12.5" font-weight="700" fill="#B8933F" text-anchor="end">7%</text>
  <rect x="1192" y="516" width="338" height="9" fill="#E4DFD3" rx="5"/>
  <rect x="1192" y="516" width="23.66" height="9" fill="#B8933F" rx="5"/>
  <text x="1192" y="560" font-family="Helvetica Neue, Helvetica, Arial, sans-serif" font-size="12.5" font-weight="600" fill="#0B1F3A" text-anchor="start">Mobility aid</text>
  <text x="1530" y="560" font-family="Helvetica Neue, Helvetica, Arial, sans-serif" font-size="12.5" font-weight="700" fill="#B8933F" text-anchor="end">58%</text>
  <rect x="1192" y="570" width="338" height="9" fill="#E4DFD3" rx="5"/>
  <rect x="1192" y="570" width="196.04" height="9" fill="#B8933F" rx="5"/>
  <rect x="1170" y="640" width="382" height="300" fill="#0B1F3A" rx="6"/>
  <text x="1192" y="672" font-family="Helvetica Neue, Helvetica, Arial, sans-serif" font-size="12" font-weight="700" fill="#8A8375" text-anchor="start" letter-spacing="1.2">POLICY BRIEFS</text>
  <rect x="1192" y="700" width="338" height="60" fill="#FFFFFF" rx="5" opacity="0.07"/>
  <rect x="1192" y="700" width="4" height="60" fill="#B8933F" rx="2"/>
  <text x="1212" y="726" font-family="Helvetica Neue, Helvetica, Arial, sans-serif" font-size="13" font-weight="700" fill="#FFFFFF" text-anchor="start">Universal service fund</text>
  <text x="1212" y="744" font-family="Helvetica Neue, Helvetica, Arial, sans-serif" font-size="11.5" font-weight="400" fill="#FFFFFF" text-anchor="start" opacity="0.55">tabled · Mar 2026</text>
  <rect x="1192" y="774" width="338" height="60" fill="#FFFFFF" rx="5" opacity="0.07"/>
  <rect x="1192" y="774" width="4" height="60" fill="#B8933F" rx="2"/>
  <text x="1212" y="800" font-family="Helvetica Neue, Helvetica, Arial, sans-serif" font-size="13" font-weight="700" fill="#FFFFFF" text-anchor="start">Accessible procurement</text>
  <text x="1212" y="818" font-family="Helvetica Neue, Helvetica, Arial, sans-serif" font-size="11.5" font-weight="400" fill="#FFFFFF" text-anchor="start" opacity="0.55">adopted · Nov 2025</text>
  <rect x="1192" y="848" width="338" height="60" fill="#FFFFFF" rx="5" opacity="0.07"/>
  <rect x="1192" y="848" width="4" height="60" fill="#B8933F" rx="2"/>
  <text x="1212" y="874" font-family="Helvetica Neue, Helvetica, Arial, sans-serif" font-size="13" font-weight="700" fill="#FFFFFF" text-anchor="start">Sign language on TV</text>
  <text x="1212" y="892" font-family="Helvetica Neue, Helvetica, Arial, sans-serif" font-size="11.5" font-weight="400" fill="#FFFFFF" text-anchor="start" opacity="0.55">in review</text>
</svg>
