<svg xmlns="http://www.w3.org/2000/svg" viewBox="0 0 1600 1000" width="1600" height="1000" role="img">
  <rect x="0.0" y="0.0" width="1600.0" height="1000.0" fill="#F7F6F0"/>
  <rect x="0.0" y="0.0" width="1600.0" height="44.0" fill="#0B3A1E"/>
  <circle cx="24.0" cy="22.0" r="4.5" fill="#FFFFFF" opacity="0.28"/>
  <circle cx="44.0" cy="22.0" r="4.5" fill="#FFFFFF" opacity="0.38"/>
  <circle cx="64.0" cy="22.0" r="4.5" fill="#FFFFFF" opacity="0.48"/>
  <text x="800.0" y="26.0" font-family="Helvetica Neue, Helvetica, Arial, sans-serif" font-size="12" font-weight="500" fill="#FFFFFF" text-anchor="middle" letter-spacing="0.3" opacity="0.62">ULITS — Uganda Livestock Information Tracking System</text>
  <rect x="1308.0" y="9.0" width="168.0" height="26.0" fill="#FFFFFF" rx="13" opacity="0.1"/>
  <circle cx="1324.0" cy="21.0" r="4.4" fill="none" stroke="#FFFFFF" stroke-width="1.5" opacity="0.5"/>
  <line x1="1327.2" y1="24.2" x2="1330.4" y2="27.4" stroke="#FFFFFF" stroke-width="1.7" stroke-linecap="round" opacity="0.5"/>
  <text x="1338.0" y="26.0" font-family="Helvetica Neue, Helvetica, Arial, sans-serif" font-size="11" font-weight="400" fill="#FFFFFF" text-anchor="start" opacity="0.42">Search</text>
  <path d="M 1500 26 v -5 a 6 6 0 0 1 12 0 v 5 z" fill="none" stroke="#FFFFFF" stroke-width="1.6" stroke-linecap="round" stroke-linejoin="round" opacity="0.55"/>
  <line x1="1497.0" y1="26.0" x2="1515.0" y2="26.0" stroke="#FFFFFF" stroke-width="1.6" stroke-linecap="round" opacity="0.55"/>
  <circle cx="1512.0" cy="15.0" r="5.0" fill="#EF4444"/>
  <text x="1512.0" y="18.5" font-family="Helvetica Neue, Helvetica, Arial, sans-serif" font-size="8" font-weight="700" fill="#FFFFFF" text-anchor="middle">3</text>
  <circle cx="1538.0" cy="22.0" r="4.0" fill="#FFFFFF" opacity="0.35"/>
  <circle cx="1548.0" cy="22.0" r="4.0" fill="#FFFFFF" opacity="0.35"/>
  <circle cx="1558.0" cy="22.0" r="4.0" fill="#FFFFFF" opacity="0.35"/>
  <rect x="0.0" y="44.0" width="268.0" height="956.0" fill="#0B3A1E"/>
  <rect x="24.0" y="70.0" width="34.0" height="34.0" fill="#D97706" rx="8"/>
  <path d="M 33 84 q 0 -6 8 -6 q 8 0 8 6 v 5 q 0 4 -8 4 q -8 0 -8 -4 z" fill="none" stroke="#FFFFFF" stroke-width="1.8" stroke-linecap="round" stroke-linejoin="round" opacity="1"/>
  <line x1="33.0" y1="83.0" x2="31.0" y2="79.0" stroke="#FFFFFF" stroke-width="1.8" stroke-linecap="round" opacity="1"/>
  <line x1="49.0" y1="83.0" x2="51.0" y2="79.0" stroke="#FFFFFF" stroke-width="1.8" stroke-linecap="round" opacity="1"/>
  <text x="68.0" y="86.0" font-family="Helvetica Neue, Helvetica, Arial, sans-serif" font-size="15" font-weight="700" fill="#FFFFFF" text-anchor="start">ULITS</text>
  <text x="68.0" y="102.0" font-family="Helvetica Neue, Helvetica, Arial, sans-serif" font-size="10.5" font-weight="500" fill="#FFFFFF" text-anchor="start" letter-spacing="0.5" opacity="0.5">MAAIF · Livestock</text>
  <line x1="24.0" y1="128.0" x2="244.0" y2="128.0" stroke="#FFFFFF" stroke-width="1" stroke-linecap="butt" opacity="0.14"/>
  <rect x="24.0" y="158.0" width="7.0" height="7.0" fill="#FFFFFF" rx="1.5" opacity="0.45"/>
  <rect x="33.0" y="158.0" width="7.0" height="7.0" fill="#FFFFFF" rx="1.5" opacity="0.45"/>
  <rect x="24.0" y="167.0" width="7.0" height="7.0" fill="#FFFFFF" rx="1.5" opacity="0.45"/>
  <rect x="33.0" y="167.0" width="7.0" height="7.0" fill="#FFFFFF" rx="1.5" opacity="0.45"/>
  <text x="58.0" y="170.0" font-family="Helvetica Neue, Helvetica, Arial, sans-serif" font-size="13" font-weight="400" fill="#FFFFFF" text-anchor="start" opacity="0.55">Dashboard</text>
  <path d="M 24 211 q 0 -6 8 -6 q 8 0 8 6 v 5 q 0 4 -8 4 q -8 0 -8 -4 z" fill="none" stroke="#FFFFFF" stroke-width="1.8" stroke-linecap="round" stroke-linejoin="round" opacity="0.45"/>
  <line x1="24.0" y1="210.0" x2="22.0" y2="206.0" stroke="#FFFFFF" stroke-width="1.8" stroke-linecap="round" opacity="0.45"/>
  <line x1="40.0" y1="210.0" x2="42.0" y2="206.0" stroke="#FFFFFF" stroke-width="1.8" stroke-linecap="round" opacity="0.45"/>
  <text x="58.0" y="218.0" font-family="Helvetica Neue, Helvetica, Arial, sans-serif" font-size="13" font-weight="400" fill="#FFFFFF" text-anchor="start" opacity="0.55">Animal registry</text>
  <rect x="14.0" y="243.0" width="240.0" height="40.0" fill="#D97706" rx="6" opacity="0.18"/>
  <rect x="0.0" y="243.0" width="3.0" height="40.0" fill="#D97706"/>
  <path d="M 24 255 l 5.5 -2 l 5 3 l 5.5 -2 v 15 l -5.5 2 l -5 -3 l -5.5 2 z" fill="none" stroke="#D97706" stroke-width="1.9" stroke-linecap="round" stroke-linejoin="round" opacity="1"/>
  <text x="58.0" y="266.0" font-family="Helvetica Neue, Helvetica, Arial, sans-serif" font-size="13" font-weight="600" fill="#FFFFFF" text-anchor="start" opacity="0.98">Movement permits</text>
  <path d="M 29 301 v 6 l -5 9 a 2 2 0 0 0 2 3 h 12 a 2 2 0 0 0 2 -3 l -5 -9 v -6" fill="none" stroke="#FFFFFF" stroke-width="1.8" stroke-linecap="round" stroke-linejoin="round" opacity="0.45"/>
  <line x1="28.0" y1="301.0" x2="36.0" y2="301.0" stroke="#FFFFFF" stroke-width="1.8" stroke-linecap="round" opacity="0.45"/>
  <text x="58.0" y="314.0" font-family="Helvetica Neue, Helvetica, Arial, sans-serif" font-size="13" font-weight="400" fill="#FFFFFF" text-anchor="start" opacity="0.55">Vaccination</text>
  <path d="M 26 362 v -6 a 6 6 0 0 1 12 0 v 6 z" fill="none" stroke="#FFFFFF" stroke-width="1.8" stroke-linecap="round" stroke-linejoin="round" opacity="0.45"/>
  <line x1="24.0" y1="362.0" x2="40.0" y2="362.0" stroke="#FFFFFF" stroke-width="1.8" stroke-linecap="round" opacity="0.45"/>
  <path d="M 30 365 a 2.5 2.5 0 0 0 4 0" fill="none" stroke="#FFFFFF" stroke-width="1.8" stroke-linecap="round" stroke-linejoin="round" opacity="0.45"/>
  <text x="58.0" y="362.0" font-family="Helvetica Neue, Helvetica, Arial, sans-serif" font-size="13" font-weight="400" fill="#FFFFFF" text-anchor="start" opacity="0.55">Disease alerts</text>
  <path d="M 32 397 c -4 0 -6.5 3 -6.5 6 c 0 5 6.5 12 6.5 12 s 6.5 -7 6.5 -12 c 0 -3 -2.5 -6 -6.5 -6 z" fill="none" stroke="#FFFFFF" stroke-width="1.9" stroke-linecap="round" stroke-linejoin="round" opacity="0.45"/>
  <text x="58.0" y="410.0" font-family="Helvetica Neue, Helvetica, Arial, sans-serif" font-size="13" font-weight="400" fill="#FFFFFF" text-anchor="start" opacity="0.55">Districts</text>
  <line x1="24.0" y1="920.0" x2="244.0" y2="920.0" stroke="#FFFFFF" stroke-width="1" stroke-linecap="butt" opacity="0.14"/>
  <circle cx="40.0" cy="952.0" r="14.0" fill="#D97706"/>
  <text x="40.0" y="956.5" font-family="Helvetica Neue, Helvetica, Arial, sans-serif" font-size="10.5" font-weight="700" fill="#FFFFFF" text-anchor="middle">DK</text>
  <text x="64.0" y="948.0" font-family="Helvetica Neue, Helvetica, Arial, sans-serif" font-size="12.5" font-weight="600" fill="#FFFFFF" text-anchor="start" opacity="0.9">D. Kirunda</text>
  <text x="64.0" y="963.0" font-family="Helvetica Neue, Helvetica, Arial, sans-serif" font-size="10.5" font-weight="400" fill="#FFFFFF" text-anchor="start" opacity="0.45">District officer</text>
  <text x="312.0" y="96.0" font-family="Helvetica Neue, Helvetica, Arial, sans-serif" font-size="30" font-weight="700" fill="#15211A" text-anchor="start">Movement permit UG-MP-11284</text>
  <text x="312.0" y="123.0" font-family="Helvetica Neue, Helvetica, Arial, sans-serif" font-size="13.5" font-weight="400" fill="#4A5A50" text-anchor="start">Mbarara → Soroti · 5 animals · issued 4 minutes ago, valid 72 hours</text>
  <rect x="1446.4" y="78.0" width="109.6" height="38.0" fill="#D97706" rx="5"/>
  <text x="1501.2" y="101.6" font-family="Helvetica Neue, Helvetica, Arial, sans-serif" font-size="13" font-weight="600" fill="#FFFFFF" text-anchor="middle">Issue permit</text>
  <rect x="1331.8" y="78.0" width="102.6" height="38.0" fill="#FFFFFF" rx="5" stroke="#E2E4DB" stroke-width="1.4"/>
  <text x="1383.1" y="101.6" font-family="Helvetica Neue, Helvetica, Arial, sans-serif" font-size="13" font-weight="600" fill="#4A5A50" text-anchor="middle">Export CSV</text>
  <rect x="312.0" y="156.0" width="400.0" height="108.0" fill="#FFFFFF" rx="8" stroke="#E2E4DB" stroke-width="1.4"/>
  <text x="332.0" y="185.0" font-family="Helvetica Neue, Helvetica, Arial, sans-serif" font-size="10.5" font-weight="700" fill="#93A29A" text-anchor="start" letter-spacing="1.1">ANIMALS ON THE REGISTER</text>
  <text x="332.0" y="226.0" font-family="Helvetica Neue, Helvetica, Arial, sans-serif" font-size="30" font-weight="700" fill="#15211A" text-anchor="start">48,120</text>
  <text x="332.0" y="247.0" font-family="Helvetica Neue, Helvetica, Arial, sans-serif" font-size="11" font-weight="400" fill="#93A29A" text-anchor="start">ear-tagged nationally</text>
  <rect x="734.0" y="156.0" width="400.0" height="108.0" fill="#FFFFFF" rx="8" stroke="#E2E4DB" stroke-width="1.4"/>
  <text x="754.0" y="185.0" font-family="Helvetica Neue, Helvetica, Arial, sans-serif" font-size="10.5" font-weight="700" fill="#93A29A" text-anchor="start" letter-spacing="1.1">PERMITS THIS QUARTER</text>
  <text x="754.0" y="226.0" font-family="Helvetica Neue, Helvetica, Arial, sans-serif" font-size="30" font-weight="700" fill="#15211A" text-anchor="start">3,402</text>
  <text x="754.0" y="247.0" font-family="Helvetica Neue, Helvetica, Arial, sans-serif" font-size="11" font-weight="400" fill="#93A29A" text-anchor="start">112 awaiting inspection</text>
  <rect x="1156.0" y="156.0" width="400.0" height="108.0" fill="#FFFFFF" rx="8" stroke="#E2E4DB" stroke-width="1.4"/>
  <text x="1176.0" y="185.0" font-family="Helvetica Neue, Helvetica, Arial, sans-serif" font-size="10.5" font-weight="700" fill="#93A29A" text-anchor="start" letter-spacing="1.1">DISTRICTS REPORTING</text>
  <text x="1176.0" y="226.0" font-family="Helvetica Neue, Helvetica, Arial, sans-serif" font-size="30" font-weight="700" fill="#D97706" text-anchor="start">146 / 146</text>
  <text x="1176.0" y="247.0" font-family="Helvetica Neue, Helvetica, Arial, sans-serif" font-size="11" font-weight="400" fill="#93A29A" text-anchor="start">every district in the country</text>
  <rect x="312.0" y="290.0" width="700.0" height="620.0" fill="#FFFFFF" rx="8" stroke="#E2E4DB" stroke-width="1.4"/>
  <rect x="313.4" y="291.4" width="697.2" height="40.0" fill="#F7F6F0"/>
  <line x1="312.0" y1="331.0" x2="1012.0" y2="331.0" stroke="#E2E4DB" stroke-width="1.4" stroke-linecap="butt"/>
  <text x="328.0" y="316.0" font-family="Helvetica Neue, Helvetica, Arial, sans-serif" font-size="10.5" font-weight="700" fill="#93A29A" text-anchor="start" letter-spacing="1.1">ROUTE AND CHECKPOINTS</text>
  <circle cx="928.0" cy="311.0" r="3.4" fill="#D97706"/>
  <text x="996.0" y="315.0" font-family="Helvetica Neue, Helvetica, Arial, sans-serif" font-size="10.5" font-weight="700" fill="#D97706" text-anchor="end" letter-spacing="1">LIVE GPS</text>
  <clipPath id="ulits-clip"><path d="M 523.7 378.9 L 540.0 358.8 L 568.7 353.1 L 616.5 352.1 L 664.4 358.8 L 704.6 352.1 L 741.0 354.0 L 779.2 359.8 L 817.5 363.6 L 836.7 349.2 L 860.6 360.7 L 879.7 394.2 L 901.8 425.8 L 896.0 466.0 L 884.5 513.9 L 873.0 552.1 L 858.7 592.3 L 846.3 609.6 L 831.9 623.9 L 825.2 645.9 L 832.9 668.9 L 825.2 700.5 L 820.4 729.2 L 817.5 767.5 L 769.7 781.9 L 721.8 808.7 L 654.8 812.5 L 587.8 812.5 L 530.4 814.4 L 487.3 816.3 L 449.0 839.3 L 434.7 855.6 L 417.4 843.1 L 410.7 815.4 L 406.0 783.8 L 417.4 757.0 L 425.1 724.4 L 416.5 699.5 L 423.2 668.9 L 439.5 645.9 L 458.6 617.2 L 477.8 601.9 L 503.6 580.9 L 520.8 552.1 L 541.9 525.3 L 566.8 496.6 L 570.6 466.0 L 557.2 435.4 L 541.9 412.4 L 530.4 393.3 Z"/></clipPath>
  <rect x="313.4" y="332.0" width="697.2" height="536.0" fill="#AFC7D6" opacity="0.32"/>
  <g clip-path="url(#ulits-clip)">
  <rect x="313.4" y="332.0" width="697.2" height="536.0" fill="#EDE8DA"/>
  <path d="M 443.8 877.6 L 415.5 805.8 L 439.5 734.0 L 421.8 662.2 L 411.1 590.4 L 402.0 518.6 L 400.9 446.9 L 416.8 375.1 L 435.8 303.3" fill="none" stroke="#14532D" stroke-width="0.9" stroke-linecap="round" stroke-linejoin="round" opacity="0.16"/>
  <path d="M 524.7 877.6 L 498.7 805.8 L 484.0 734.0 L 505.1 662.2 L 493.8 590.4 L 520.9 518.6 L 500.0 446.9 L 521.0 375.1 L 497.2 303.3" fill="none" stroke="#14532D" stroke-width="0.9" stroke-linecap="round" stroke-linejoin="round" opacity="0.16"/>
  <path d="M 565.6 877.6 L 579.2 805.8 L 566.7 734.0 L 555.7 662.2 L 576.9 590.4 L 579.4 518.6 L 559.4 446.9 L 568.3 375.1 L 568.8 303.3" fill="none" stroke="#14532D" stroke-width="0.9" stroke-linecap="round" stroke-linejoin="round" opacity="0.16"/>
  <path d="M 639.9 877.6 L 667.1 805.8 L 660.7 734.0 L 634.8 662.2 L 652.3 590.4 L 639.2 518.6 L 656.7 446.9 L 668.4 375.1 L 624.2 303.3" fill="none" stroke="#14532D" stroke-width="0.9" stroke-linecap="round" stroke-linejoin="round" opacity="0.16"/>
  <path d="M 730.0 877.6 L 702.6 805.8 L 729.8 734.0 L 693.6 662.2 L 692.9 590.4 L 698.9 518.6 L 711.8 446.9 L 688.7 375.1 L 691.7 303.3" fill="none" stroke="#14532D" stroke-width="0.9" stroke-linecap="round" stroke-linejoin="round" opacity="0.16"/>
  <path d="M 764.8 877.6 L 791.0 805.8 L 765.7 734.0 L 766.9 662.2 L 759.2 590.4 L 771.1 518.6 L 791.6 446.9 L 764.8 375.1 L 773.3 303.3" fill="none" stroke="#14532D" stroke-width="0.9" stroke-linecap="round" stroke-linejoin="round" opacity="0.16"/>
  <path d="M 880.9 877.6 L 849.5 805.8 L 900.1 734.0 L 870.2 662.2 L 867.1 590.4 L 888.5 518.6 L 882.3 446.9 L 877.1 375.1 L 874.8 303.3" fill="none" stroke="#14532D" stroke-width="0.9" stroke-linecap="round" stroke-linejoin="round" opacity="0.16"/>
  <path d="M 386.8 830.0 L 449.0 812.8 L 511.2 809.7 L 573.5 845.7 L 635.7 840.0 L 697.9 811.9 L 760.1 815.9 L 822.3 822.9 L 884.5 847.8 L 946.8 814.3" fill="none" stroke="#14532D" stroke-width="0.9" stroke-linecap="round" stroke-linejoin="round" opacity="0.16"/>
  <path d="M 386.8 757.7 L 449.0 762.6 L 511.2 727.0 L 573.5 743.6 L 635.7 756.0 L 697.9 728.8 L 760.1 746.8 L 822.3 725.3 L 884.5 724.3 L 946.8 723.3" fill="none" stroke="#14532D" stroke-width="0.9" stroke-linecap="round" stroke-linejoin="round" opacity="0.16"/>
  <path d="M 386.8 612.6 L 449.0 617.4 L 511.2 639.8 L 573.5 629.2 L 635.7 649.4 L 697.9 649.1 L 760.1 644.0 L 822.3 609.5 L 884.5 644.5 L 946.8 636.9" fill="none" stroke="#14532D" stroke-width="0.9" stroke-linecap="round" stroke-linejoin="round" opacity="0.16"/>
  <path d="M 386.8 572.6 L 449.0 558.2 L 511.2 573.4 L 573.5 570.0 L 635.7 565.4 L 697.9 558.7 L 760.1 548.8 L 822.3 570.9 L 884.5 540.0 L 946.8 541.0" fill="none" stroke="#14532D" stroke-width="0.9" stroke-linecap="round" stroke-linejoin="round" opacity="0.16"/>
  <path d="M 386.8 471.4 L 449.0 473.9 L 511.2 446.3 L 573.5 474.6 L 635.7 463.6 L 697.9 446.6 L 760.1 463.9 L 822.3 454.0 L 884.5 475.9 L 946.8 457.1" fill="none" stroke="#14532D" stroke-width="0.9" stroke-linecap="round" stroke-linejoin="round" opacity="0.16"/>
  <path d="M 386.8 360.0 L 449.0 354.3 L 511.2 358.5 L 573.5 388.3 L 635.7 350.8 L 697.9 392.6 L 760.1 371.3 L 822.3 371.5 L 884.5 386.8 L 946.8 355.6" fill="none" stroke="#14532D" stroke-width="0.9" stroke-linecap="round" stroke-linejoin="round" opacity="0.16"/>
  <path d="M 614.6 812.5 L 693.1 810.6 L 760.1 783.8 L 817.5 767.5 L 813.7 734.0 L 800.3 712.9 L 764.9 688.1 L 726.6 680.4 L 688.3 693.8 L 656.7 714.9 L 633.8 747.4 L 620.4 781.9 Z" fill="#AFC7D6"/>
  <path d="M 484.5 600.0 L 509.3 569.4 L 538.0 536.8 L 562.9 510.0 L 553.4 500.5 L 526.6 525.3 L 497.8 559.8 L 473.0 590.4 Z" fill="#AFC7D6"/>
  <path d="M 635.7 611.5 L 662.5 613.4 L 691.2 605.7 L 719.9 586.6 L 746.7 575.1 L 781.2 571.3 L 790.7 559.8 L 760.1 550.2 L 729.5 561.7 L 700.8 567.5 L 677.8 577.0 L 664.4 563.6 L 643.3 557.9 L 629.9 573.2 L 641.4 592.3 Z" fill="#AFC7D6"/>
  <path d="M 691.2 684.2 L 609.8 747.4 L 507.4 773.2 L 443.3 834.5" fill="none" stroke="#FFFFFF" stroke-width="3.4" stroke-linecap="round" stroke-linejoin="round" opacity="0.75"/>
  <path d="M 691.2 684.2 L 609.8 747.4 L 507.4 773.2 L 443.3 834.5" fill="none" stroke="#C9A227" stroke-width="1.6" stroke-linecap="round" stroke-linejoin="round" opacity="0.55"/>
  <path d="M 691.2 684.2 L 750.5 672.7 L 844.3 611.5 L 789.8 551.2" fill="none" stroke="#FFFFFF" stroke-width="3.4" stroke-linecap="round" stroke-linejoin="round" opacity="0.75"/>
  <path d="M 691.2 684.2 L 750.5 672.7 L 844.3 611.5 L 789.8 551.2" fill="none" stroke="#C9A227" stroke-width="1.6" stroke-linecap="round" stroke-linejoin="round" opacity="0.55"/>
  <path d="M 691.2 684.2 L 573.5 578.0 L 664.4 449.7 L 531.3 425.8" fill="none" stroke="#FFFFFF" stroke-width="3.4" stroke-linecap="round" stroke-linejoin="round" opacity="0.75"/>
  <path d="M 691.2 684.2 L 573.5 578.0 L 664.4 449.7 L 531.3 425.8" fill="none" stroke="#C9A227" stroke-width="1.6" stroke-linecap="round" stroke-linejoin="round" opacity="0.55"/>
  <path d="M 664.4 449.7 L 721.8 499.5 L 789.8 551.2" fill="none" stroke="#FFFFFF" stroke-width="3.4" stroke-linecap="round" stroke-linejoin="round" opacity="0.75"/>
  <path d="M 664.4 449.7 L 721.8 499.5 L 789.8 551.2" fill="none" stroke="#C9A227" stroke-width="1.6" stroke-linecap="round" stroke-linejoin="round" opacity="0.55"/>
  <path d="M 507.4 773.2 L 452.9 697.6 L 470.1 652.6 L 573.5 578.0" fill="none" stroke="#FFFFFF" stroke-width="3.4" stroke-linecap="round" stroke-linejoin="round" opacity="0.75"/>
  <path d="M 507.4 773.2 L 452.9 697.6 L 470.1 652.6 L 573.5 578.0" fill="none" stroke="#C9A227" stroke-width="1.6" stroke-linecap="round" stroke-linejoin="round" opacity="0.55"/>
  <path d="M 789.8 551.2 L 890.3 472.7" fill="none" stroke="#FFFFFF" stroke-width="3.4" stroke-linecap="round" stroke-linejoin="round" opacity="0.75"/>
  <path d="M 789.8 551.2 L 890.3 472.7" fill="none" stroke="#C9A227" stroke-width="1.6" stroke-linecap="round" stroke-linejoin="round" opacity="0.55"/>
  </g>
  <path d="M 523.7 378.9 L 540.0 358.8 L 568.7 353.1 L 616.5 352.1 L 664.4 358.8 L 704.6 352.1 L 741.0 354.0 L 779.2 359.8 L 817.5 363.6 L 836.7 349.2 L 860.6 360.7 L 879.7 394.2 L 901.8 425.8 L 896.0 466.0 L 884.5 513.9 L 873.0 552.1 L 858.7 592.3 L 846.3 609.6 L 831.9 623.9 L 825.2 645.9 L 832.9 668.9 L 825.2 700.5 L 820.4 729.2 L 817.5 767.5 L 769.7 781.9 L 721.8 808.7 L 654.8 812.5 L 587.8 812.5 L 530.4 814.4 L 487.3 816.3 L 449.0 839.3 L 434.7 855.6 L 417.4 843.1 L 410.7 815.4 L 406.0 783.8 L 417.4 757.0 L 425.1 724.4 L 416.5 699.5 L 423.2 668.9 L 439.5 645.9 L 458.6 617.2 L 477.8 601.9 L 503.6 580.9 L 520.8 552.1 L 541.9 525.3 L 566.8 496.6 L 570.6 466.0 L 557.2 435.4 L 541.9 412.4 L 530.4 393.3 Z" fill="none" stroke="#14532D" stroke-width="2.2" stroke-linecap="round" stroke-linejoin="round" opacity="0.85"/>
  <text x="717.0" y="734.0" font-family="Helvetica Neue, Helvetica, Arial, sans-serif" font-size="9" font-weight="700" fill="#14532D" text-anchor="middle" letter-spacing="0.9" opacity="0.55">LAKE VICTORIA</text>
  <text x="702.7" y="582.8" font-family="Helvetica Neue, Helvetica, Arial, sans-serif" font-size="9" font-weight="700" fill="#14532D" text-anchor="middle" letter-spacing="0.9" opacity="0.55">LAKE KYOGA</text>
  <path d="M 507.4 773.2 L 609.8 747.4 L 691.2 684.2 L 750.5 672.7 L 844.3 611.5 L 789.8 551.2" fill="none" stroke="#FFFFFF" stroke-width="6" stroke-linecap="round" stroke-linejoin="round" opacity="0.85"/>
  <path d="M 507.4 773.2 L 609.8 747.4 L 691.2 684.2 L 750.5 672.7 L 844.3 611.5 L 789.8 551.2" fill="none" stroke="#D97706" stroke-width="3" stroke-linecap="round" stroke-linejoin="round" stroke-dasharray="10 7"/>
  <circle cx="507.4" cy="773.2" r="5.0" fill="#FFFFFF" stroke="#D97706" stroke-width="2.4"/>
  <circle cx="573.5" cy="578.0" r="5.0" fill="#FFFFFF" stroke="#D97706" stroke-width="2.4"/>
  <circle cx="691.2" cy="684.2" r="15.0" fill="#D97706" opacity="0.3"/>
  <path d="M 691.2 664.2 c -7 0 -12 5 -12 11 c 0 8 12 20 12 20 s 12 -12 12 -20 c 0 -6 -5 -11 -12 -11 z" fill="#D97706"/>
  <circle cx="691.2" cy="675.2" r="4.2" fill="#FFFFFF"/>
  <circle cx="789.8" cy="551.2" r="5.0" fill="#FFFFFF" stroke="#D97706" stroke-width="2.4"/>
  <circle cx="844.3" cy="611.5" r="5.0" fill="#FFFFFF" stroke="#D97706" stroke-width="2.4"/>
  <circle cx="531.3" cy="425.8" r="5.0" fill="#FFFFFF" stroke="#D97706" stroke-width="2.4"/>
  <text x="520.4" y="776.6" font-family="Helvetica Neue, Helvetica, Arial, sans-serif" font-size="9.5" font-weight="600" fill="#14532D" text-anchor="start" opacity="0.8">Mbarara</text>
  <circle cx="664.4" cy="449.7" r="3.6" fill="#FFFFFF" stroke="#14532D" stroke-width="1.6"/>
  <text x="671.4" y="453.1" font-family="Helvetica Neue, Helvetica, Arial, sans-serif" font-size="9.5" font-weight="600" fill="#14532D" text-anchor="start" opacity="0.8">Gulu</text>
  <text x="802.8" y="554.6" font-family="Helvetica Neue, Helvetica, Arial, sans-serif" font-size="9.5" font-weight="600" fill="#14532D" text-anchor="start" opacity="0.8">Soroti</text>
  <text x="857.3" y="614.9" font-family="Helvetica Neue, Helvetica, Arial, sans-serif" font-size="9.5" font-weight="600" fill="#14532D" text-anchor="start" opacity="0.8">Mbale</text>
  <text x="544.3" y="429.2" font-family="Helvetica Neue, Helvetica, Arial, sans-serif" font-size="9.5" font-weight="600" fill="#14532D" text-anchor="start" opacity="0.8">Arua</text>
  <circle cx="470.1" cy="652.6" r="2.0" fill="#14532D" opacity="0.5"/>
  <text x="475.6" y="655.4" font-family="Helvetica Neue, Helvetica, Arial, sans-serif" font-size="8" font-weight="500" fill="#14532D" text-anchor="start" opacity="0.5">Fort Portal</text>
  <circle cx="609.8" cy="747.4" r="2.0" fill="#14532D" opacity="0.5"/>
  <text x="615.3" y="750.2" font-family="Helvetica Neue, Helvetica, Arial, sans-serif" font-size="8" font-weight="500" fill="#14532D" text-anchor="start" opacity="0.5">Masaka</text>
  <circle cx="750.5" cy="672.7" r="2.0" fill="#14532D" opacity="0.5"/>
  <text x="756.0" y="675.5" font-family="Helvetica Neue, Helvetica, Arial, sans-serif" font-size="8" font-weight="500" fill="#14532D" text-anchor="start" opacity="0.5">Jinja</text>
  <circle cx="721.8" cy="499.5" r="2.0" fill="#14532D" opacity="0.5"/>
  <text x="727.3" y="502.3" font-family="Helvetica Neue, Helvetica, Arial, sans-serif" font-size="8" font-weight="500" fill="#14532D" text-anchor="start" opacity="0.5">Lira</text>
  <text x="586.5" y="580.8" font-family="Helvetica Neue, Helvetica, Arial, sans-serif" font-size="8" font-weight="500" fill="#14532D" text-anchor="start" opacity="0.5">Hoima</text>
  <circle cx="443.3" cy="834.5" r="2.0" fill="#14532D" opacity="0.5"/>
  <text x="448.8" y="837.3" font-family="Helvetica Neue, Helvetica, Arial, sans-serif" font-size="8" font-weight="500" fill="#14532D" text-anchor="start" opacity="0.5">Kabale</text>
  <circle cx="890.3" cy="472.7" r="2.0" fill="#14532D" opacity="0.5"/>
  <text x="895.8" y="475.5" font-family="Helvetica Neue, Helvetica, Arial, sans-serif" font-size="8" font-weight="500" fill="#14532D" text-anchor="start" opacity="0.5">Moroto</text>
  <circle cx="452.9" cy="697.6" r="2.0" fill="#14532D" opacity="0.5"/>
  <text x="458.4" y="700.4" font-family="Helvetica Neue, Helvetica, Arial, sans-serif" font-size="8" font-weight="500" fill="#14532D" text-anchor="start" opacity="0.5">Kasese</text>
  <rect x="977.6" y="346.0" width="26.0" height="52.0" fill="#000000" rx="4" opacity="0.12"/>
  <rect x="976.6" y="344.0" width="26.0" height="52.0" fill="#FFFFFF" rx="4" stroke="#00000022" stroke-width="1"/>
  <line x1="981.6" y1="370.0" x2="997.6" y2="370.0" stroke="#00000018" stroke-width="1" stroke-linecap="butt"/>
  <text x="989.6" y="362.0" font-family="Helvetica Neue, Helvetica, Arial, sans-serif" font-size="15" font-weight="600" fill="#14532D" text-anchor="middle">+</text>
  <text x="989.6" y="388.0" font-family="Helvetica Neue, Helvetica, Arial, sans-serif" font-size="15" font-weight="600" fill="#14532D" text-anchor="middle">−</text>
  <rect x="313.4" y="844.0" width="697.2" height="24.0" fill="#FFFFFF" opacity="0.82"/>
  <line x1="327.4" y1="859.0" x2="385.4" y2="859.0" stroke="#14532D" stroke-width="2" stroke-linecap="butt" opacity="0.7"/>
  <line x1="327.4" y1="855.0" x2="327.4" y2="859.0" stroke="#14532D" stroke-width="2" stroke-linecap="butt" opacity="0.7"/>
  <line x1="385.4" y1="855.0" x2="385.4" y2="859.0" stroke="#14532D" stroke-width="2" stroke-linecap="butt" opacity="0.7"/>
  <text x="391.4" y="862.0" font-family="Helvetica Neue, Helvetica, Arial, sans-serif" font-size="9" font-weight="600" fill="#14532D" text-anchor="start" opacity="0.6">100 km</text>
  <text x="998.6" y="862.0" font-family="SFMono-Regular, Menlo, Consolas, monospace" font-size="8.5" font-weight="500" fill="#14532D" text-anchor="end" opacity="0.45">0.3476° N, 32.5825° E</text>
  <rect x="328.0" y="344.0" width="63.9" height="24.0" fill="#FFFFFF" rx="4" stroke="#D97706" stroke-width="1.4"/>
  <text x="359.9" y="360.0" font-family="Helvetica Neue, Helvetica, Arial, sans-serif" font-size="10" font-weight="700" fill="#14532D" text-anchor="middle" letter-spacing="0.3">Districts</text>
  <rect x="397.9" y="344.0" width="51.0" height="24.0" fill="#FFFFFF" rx="4" stroke="#D97706" stroke-width="1.4"/>
  <text x="423.4" y="360.0" font-family="Helvetica Neue, Helvetica, Arial, sans-serif" font-size="10" font-weight="700" fill="#14532D" text-anchor="middle" letter-spacing="0.3">Roads</text>
  <rect x="454.9" y="344.0" width="64.0" height="24.0" fill="#FFFFFF" rx="4" stroke="#D97706" stroke-width="1.4"/>
  <text x="486.9" y="360.0" font-family="Helvetica Neue, Helvetica, Arial, sans-serif" font-size="10" font-weight="700" fill="#14532D" text-anchor="middle" letter-spacing="0.3">Holdings</text>
  <rect x="524.9" y="344.0" width="58.4" height="24.0" fill="#FFFFFFCC" rx="4" stroke="#00000022" stroke-width="1"/>
  <text x="554.1" y="360.0" font-family="Helvetica Neue, Helvetica, Arial, sans-serif" font-size="10" font-weight="500" fill="#93A29A" text-anchor="middle" letter-spacing="0.3">Markets</text>
  <rect x="313.4" y="868.0" width="697.2" height="40.0" fill="#FFFFFF"/>
  <line x1="312.0" y1="868.0" x2="1012.0" y2="868.0" stroke="#E2E4DB" stroke-width="1.4" stroke-linecap="butt"/>
  <circle cx="334.0" cy="888.0" r="5.0" fill="#FFFFFF" stroke="#D97706" stroke-width="2.4"/>
  <text x="346.0" y="892.0" font-family="Helvetica Neue, Helvetica, Arial, sans-serif" font-size="11" font-weight="500" fill="#4A5A50" text-anchor="start">Registered holding</text>
  <line x1="468.0" y1="888.0" x2="496.0" y2="888.0" stroke="#D97706" stroke-width="3" stroke-linecap="butt" stroke-dasharray="9 6"/>
  <text x="504.0" y="892.0" font-family="Helvetica Neue, Helvetica, Arial, sans-serif" font-size="11" font-weight="500" fill="#4A5A50" text-anchor="start">Permitted route</text>
  <text x="996.0" y="892.0" font-family="Helvetica Neue, Helvetica, Arial, sans-serif" font-size="11" font-weight="500" fill="#93A29A" text-anchor="end">6 checkpoints on this route</text>
  <text x="1036.0" y="324.0" font-family="Helvetica Neue, Helvetica, Arial, sans-serif" font-size="11" font-weight="700" fill="#93A29A" text-anchor="start" letter-spacing="1.2">ANIMALS ON THIS PERMIT</text>
  <rect x="1036.0" y="340.0" width="284.0" height="286.0" fill="#FFFFFF" rx="8" stroke="#E2E4DB" stroke-width="1.4"/>
  <rect x="1037.4" y="345.0" width="281.2" height="46.0" fill="#F7F6F0"/>
  <line x1="1036.0" y1="391.0" x2="1320.0" y2="391.0" stroke="#E2E4DB" stroke-width="1.4" stroke-linecap="butt"/>
  <text x="1056.0" y="372.0" font-family="Helvetica Neue, Helvetica, Arial, sans-serif" font-size="10.5" font-weight="700" fill="#93A29A" text-anchor="start" letter-spacing="1">EAR TAG</text>
  <text x="1208.0" y="372.0" font-family="Helvetica Neue, Helvetica, Arial, sans-serif" font-size="10.5" font-weight="700" fill="#93A29A" text-anchor="start" letter-spacing="1"></text>
  <text x="1056.0" y="418.5" font-family="SFMono-Regular, Menlo, Consolas, monospace" font-size="12" font-weight="600" fill="#15211A" text-anchor="start">UG-0442-118</text>
  <rect x="1208.0" y="403.0" width="70.5" height="22.0" fill="#E4F0E7" rx="4"/>
  <text x="1243.3" y="417.8" font-family="Helvetica Neue, Helvetica, Arial, sans-serif" font-size="10.5" font-weight="700" fill="#15803D" text-anchor="middle" letter-spacing="0.3">CLEARED</text>
  <line x1="1050.0" y1="437.0" x2="1306.0" y2="437.0" stroke="#E2E4DB" stroke-width="1" stroke-linecap="butt"/>
  <text x="1056.0" y="464.5" font-family="SFMono-Regular, Menlo, Consolas, monospace" font-size="12" font-weight="600" fill="#15211A" text-anchor="start">UG-0442-119</text>
  <rect x="1208.0" y="449.0" width="70.5" height="22.0" fill="#E4F0E7" rx="4"/>
  <text x="1243.3" y="463.8" font-family="Helvetica Neue, Helvetica, Arial, sans-serif" font-size="10.5" font-weight="700" fill="#15803D" text-anchor="middle" letter-spacing="0.3">CLEARED</text>
  <line x1="1050.0" y1="483.0" x2="1306.0" y2="483.0" stroke="#E2E4DB" stroke-width="1" stroke-linecap="butt"/>
  <text x="1056.0" y="510.5" font-family="SFMono-Regular, Menlo, Consolas, monospace" font-size="12" font-weight="600" fill="#15211A" text-anchor="start">UG-0873-004</text>
  <rect x="1208.0" y="495.0" width="70.5" height="22.0" fill="#E4F0E7" rx="4"/>
  <text x="1243.3" y="509.8" font-family="Helvetica Neue, Helvetica, Arial, sans-serif" font-size="10.5" font-weight="700" fill="#15803D" text-anchor="middle" letter-spacing="0.3">CLEARED</text>
  <line x1="1050.0" y1="529.0" x2="1306.0" y2="529.0" stroke="#E2E4DB" stroke-width="1" stroke-linecap="butt"/>
  <text x="1056.0" y="556.5" font-family="SFMono-Regular, Menlo, Consolas, monospace" font-size="12" font-weight="600" fill="#15211A" text-anchor="start">UG-1120-771</text>
  <rect x="1208.0" y="541.0" width="63.6" height="22.0" fill="#FBF0DC" rx="4"/>
  <text x="1239.8" y="555.8" font-family="Helvetica Neue, Helvetica, Arial, sans-serif" font-size="10.5" font-weight="700" fill="#B45309" text-anchor="middle" letter-spacing="0.3">QUEUED</text>
  <line x1="1050.0" y1="575.0" x2="1306.0" y2="575.0" stroke="#E2E4DB" stroke-width="1" stroke-linecap="butt"/>
  <text x="1056.0" y="602.5" font-family="SFMono-Regular, Menlo, Consolas, monospace" font-size="12" font-weight="600" fill="#15211A" text-anchor="start">UG-1120-772</text>
  <rect x="1208.0" y="587.0" width="63.6" height="22.0" fill="#FBF0DC" rx="4"/>
  <text x="1239.8" y="601.8" font-family="Helvetica Neue, Helvetica, Arial, sans-serif" font-size="10.5" font-weight="700" fill="#B45309" text-anchor="middle" letter-spacing="0.3">QUEUED</text>
  <rect x="1036.0" y="634.0" width="284.0" height="132.0" fill="#0B3A1E" rx="8"/>
  <path d="M 1062 698 a 28 28 0 0 1 42 0" fill="none" stroke="#D97706" stroke-width="3.6" stroke-linecap="round" stroke-linejoin="round"/>
  <path d="M 1071 686 a 17 17 0 0 1 24 0" fill="none" stroke="#D97706" stroke-width="3.6" stroke-linecap="round" stroke-linejoin="round" opacity="0.55"/>
  <circle cx="1083.0" cy="676.0" r="3.4" fill="#D97706" opacity="0.3"/>
  <text x="1122.0" y="680.0" font-family="Helvetica Neue, Helvetica, Arial, sans-serif" font-size="14" font-weight="700" fill="#FFFFFF" text-anchor="start">Working offline</text>
  <text x="1122.0" y="700.0" font-family="Helvetica Neue, Helvetica, Arial, sans-serif" font-size="11.5" font-weight="400" fill="#FFFFFF" text-anchor="start" opacity="0.62">212 records held on this device.</text>
  <text x="1122.0" y="718.0" font-family="Helvetica Neue, Helvetica, Arial, sans-serif" font-size="11.5" font-weight="400" fill="#FFFFFF" text-anchor="start" opacity="0.62">They upload themselves the moment</text>
  <text x="1122.0" y="736.0" font-family="Helvetica Neue, Helvetica, Arial, sans-serif" font-size="11.5" font-weight="400" fill="#FFFFFF" text-anchor="start" opacity="0.62">a signal comes back.</text>
  <text x="1036.0" y="802.0" font-family="Helvetica Neue, Helvetica, Arial, sans-serif" font-size="11" font-weight="700" fill="#93A29A" text-anchor="start" letter-spacing="1.2">VACCINATION COVERAGE</text>
  <text x="1320.0" y="802.0" font-family="Helvetica Neue, Helvetica, Arial, sans-serif" font-size="11" font-weight="700" fill="#D97706" text-anchor="end" letter-spacing="1">MBARARA · %</text>
  <line x1="1062.0" y1="888.0" x2="1320.0" y2="888.0" stroke="#E2E4DB" stroke-width="1" stroke-linecap="butt"/>
  <text x="1056.0" y="891.5" font-family="Helvetica Neue, Helvetica, Arial, sans-serif" font-size="9" font-weight="500" fill="#93A29A" text-anchor="end">0</text>
  <line x1="1062.0" y1="855.0" x2="1320.0" y2="855.0" stroke="#E2E4DB" stroke-width="1" stroke-linecap="butt"/>
  <text x="1056.0" y="858.5" font-family="Helvetica Neue, Helvetica, Arial, sans-serif" font-size="9" font-weight="500" fill="#93A29A" text-anchor="end">47</text>
  <line x1="1062.0" y1="822.0" x2="1320.0" y2="822.0" stroke="#E2E4DB" stroke-width="1" stroke-linecap="butt"/>
  <text x="1056.0" y="825.5" font-family="Helvetica Neue, Helvetica, Arial, sans-serif" font-size="9" font-weight="500" fill="#93A29A" text-anchor="end">94</text>
  <rect x="1062.0" y="837.4" width="39.2" height="50.6" fill="#14532D" rx="3" opacity="0.82"/>
  <text x="1081.6" y="830.4" font-family="Helvetica Neue, Helvetica, Arial, sans-serif" font-size="9.5" font-weight="700" fill="#93A29A" text-anchor="middle">72</text>
  <text x="1081.6" y="907.0" font-family="Helvetica Neue, Helvetica, Arial, sans-serif" font-size="10.5" font-weight="600" fill="#93A29A" text-anchor="middle">JAN</text>
  <rect x="1116.7" y="826.2" width="39.2" height="61.8" fill="#14532D" rx="3" opacity="0.82"/>
  <text x="1136.3" y="819.2" font-family="Helvetica Neue, Helvetica, Arial, sans-serif" font-size="9.5" font-weight="700" fill="#93A29A" text-anchor="middle">88</text>
  <text x="1136.3" y="907.0" font-family="Helvetica Neue, Helvetica, Arial, sans-serif" font-size="10.5" font-weight="600" fill="#93A29A" text-anchor="middle">FEB</text>
  <rect x="1171.4" y="845.2" width="39.2" height="42.8" fill="#14532D" rx="3" opacity="0.82"/>
  <text x="1191.0" y="838.2" font-family="Helvetica Neue, Helvetica, Arial, sans-serif" font-size="9.5" font-weight="700" fill="#93A29A" text-anchor="middle">61</text>
  <text x="1191.0" y="907.0" font-family="Helvetica Neue, Helvetica, Arial, sans-serif" font-size="10.5" font-weight="600" fill="#93A29A" text-anchor="middle">MAR</text>
  <rect x="1226.1" y="822.0" width="39.2" height="66.0" fill="#D97706" rx="3" opacity="1"/>
  <text x="1245.7" y="815.0" font-family="Helvetica Neue, Helvetica, Arial, sans-serif" font-size="9.5" font-weight="700" fill="#D97706" text-anchor="middle">94</text>
  <text x="1245.7" y="907.0" font-family="Helvetica Neue, Helvetica, Arial, sans-serif" font-size="10.5" font-weight="600" fill="#93A29A" text-anchor="middle">APR</text>
  <rect x="1280.8" y="831.8" width="39.2" height="56.2" fill="#14532D" rx="3" opacity="0.82"/>
  <text x="1300.4" y="824.8" font-family="Helvetica Neue, Helvetica, Arial, sans-serif" font-size="9.5" font-weight="700" fill="#93A29A" text-anchor="middle">80</text>
  <text x="1300.4" y="907.0" font-family="Helvetica Neue, Helvetica, Arial, sans-serif" font-size="10.5" font-weight="600" fill="#93A29A" text-anchor="middle">MAY</text>
  <rect x="1338.0" y="304.0" width="218.0" height="430.1" fill="#1B1B1B" rx="32"/>
  <rect x="1338.0" y="304.0" width="218.0" height="430.1" fill="none" rx="32" stroke="#000000" stroke-width="1.4" opacity="0.3"/>
  <rect x="1346.0" y="312.0" width="202.0" height="414.1" fill="#F7F6F0" rx="25"/>
  <rect x="1346.0" y="312.0" width="202.0" height="78.0" fill="#14532D"/>
  <rect x="1346.0" y="312.0" width="202.0" height="25.0" fill="#14532D" rx="25"/>
  <text x="1366.0" y="354.0" font-family="Helvetica Neue, Helvetica, Arial, sans-serif" font-size="15" font-weight="700" fill="#FFFFFF" text-anchor="start">Scan a tag</text>
  <text x="1366.0" y="373.0" font-family="Helvetica Neue, Helvetica, Arial, sans-serif" font-size="10.5" font-weight="400" fill="#FFFFFF" text-anchor="start" opacity="0.6">Mbarara · offline</text>
  <circle cx="1518.0" cy="362.0" r="12.0" fill="#FFFFFF" opacity="0.18"/>
  <text x="1518.0" y="366.0" font-family="Helvetica Neue, Helvetica, Arial, sans-serif" font-size="9" font-weight="700" fill="#FFFFFF" text-anchor="middle">DK</text>
  <rect x="1360.0" y="406.0" width="174.0" height="148.0" fill="#FFFFFF" rx="10" stroke="#E2E4DB" stroke-width="1.4"/>
  <rect x="1400.0" y="436.0" width="4.8" height="54.0" fill="#14532D"/>
  <rect x="1406.4" y="436.0" width="1.6" height="54.0" fill="#14532D"/>
  <rect x="1411.2" y="436.0" width="6.4" height="54.0" fill="#14532D"/>
  <rect x="1419.2" y="436.0" width="3.2" height="54.0" fill="#14532D"/>
  <rect x="1424.0" y="436.0" width="1.6" height="54.0" fill="#14532D"/>
  <rect x="1430.4" y="436.0" width="1.6" height="54.0" fill="#14532D"/>
  <rect x="1438.4" y="436.0" width="3.2" height="54.0" fill="#14532D"/>
  <rect x="1443.2" y="436.0" width="4.8" height="54.0" fill="#14532D"/>
  <rect x="1449.6" y="436.0" width="1.6" height="54.0" fill="#14532D"/>
  <rect x="1454.4" y="436.0" width="1.6" height="54.0" fill="#14532D"/>
  <rect x="1464.0" y="436.0" width="3.2" height="54.0" fill="#14532D"/>
  <rect x="1468.8" y="436.0" width="1.6" height="54.0" fill="#14532D"/>
  <rect x="1475.2" y="436.0" width="1.6" height="54.0" fill="#14532D"/>
  <rect x="1480.0" y="436.0" width="6.4" height="54.0" fill="#14532D"/>
  <rect x="1488.0" y="436.0" width="1.6" height="54.0" fill="#14532D"/>
  <text x="1447.0" y="520.0" font-family="Helvetica Neue, Helvetica, Arial, sans-serif" font-size="13" font-weight="700" fill="#15211A" text-anchor="middle">UG-1120-772</text>
  <text x="1447.0" y="538.0" font-family="Helvetica Neue, Helvetica, Arial, sans-serif" font-size="10" font-weight="400" fill="#93A29A" text-anchor="middle">read in 0.3 seconds</text>
  <text x="1364.0" y="574.0" font-family="Helvetica Neue, Helvetica, Arial, sans-serif" font-size="10.5" font-weight="500" fill="#93A29A" text-anchor="start">Breed</text>
  <text x="1530.0" y="574.0" font-family="Helvetica Neue, Helvetica, Arial, sans-serif" font-size="11" font-weight="600" fill="#15211A" text-anchor="end">Friesian</text>
  <text x="1364.0" y="600.0" font-family="Helvetica Neue, Helvetica, Arial, sans-serif" font-size="10.5" font-weight="500" fill="#93A29A" text-anchor="start">Owner</text>
  <text x="1530.0" y="600.0" font-family="Helvetica Neue, Helvetica, Arial, sans-serif" font-size="11" font-weight="600" fill="#15211A" text-anchor="end">J. Tumusiime</text>
  <text x="1364.0" y="626.0" font-family="Helvetica Neue, Helvetica, Arial, sans-serif" font-size="10.5" font-weight="500" fill="#93A29A" text-anchor="start">Vaccinated</text>
  <text x="1530.0" y="626.0" font-family="Helvetica Neue, Helvetica, Arial, sans-serif" font-size="11" font-weight="600" fill="#15211A" text-anchor="end">11 Mar</text>
  <rect x="1360.0" y="642.0" width="174.0" height="44.0" fill="#D97706" rx="8"/>
  <text x="1447.0" y="670.0" font-family="Helvetica Neue, Helvetica, Arial, sans-serif" font-size="13.5" font-weight="700" fill="#FFFFFF" text-anchor="middle">Add to permit</text>
  <rect x="1360.0" y="692.0" width="174.0" height="28.0" fill="#B45309" rx="6" opacity="0.18"/>
  <text x="1447.0" y="711.0" font-family="Helvetica Neue, Helvetica, Arial, sans-serif" font-size="10.5" font-weight="700" fill="#B45309" text-anchor="middle">212 waiting to sync</text>
  <rect x="1421.0" y="320.0" width="52.0" height="9.0" fill="#1B1B1B" rx="5"/>
</svg>
